<svg width="82" height="81" viewBox="0 0 82 81" fill="none" xmlns="http://www.w3.org/2000/svg">
<circle cx="63.5" cy="62.5" r="18.5" fill="#00E96A"/>
<path d="M44.0801 0C46.7299 0 49.5048 0.624436 51.8789 2.39844L51.8809 2.39648C53.6191 3.64723 55.103 5.24307 56.1348 7.22266L56.1533 7.25781L56.1709 7.29297L66.7415 27.9165C70.4976 35.2446 65.176 43.9521 56.9413 43.9521C52.8039 43.9521 49.0156 41.6331 47.1338 37.9483L43.5 30.833L36.9467 43.9199L37.121 43.9611C39.1416 44.4388 40.9552 45.5533 42.2941 47.1402C47.6061 53.436 43.1307 63.0674 34.8934 63.0674H27.4834L21.5908 74.9385L21.5762 74.9688L21.5605 74.999C20.5921 76.8957 19.1221 78.5047 17.1494 79.583C15.2313 80.6312 13.1684 81 11.2246 81C8.55918 80.9999 5.6842 80.2887 3.35645 78.1719C1.2016 76.2122 6.61274e-05 73.5711 0 70.6143C3.36213e-05 68.7453 0.650566 67.1173 1.20605 65.998L1.21484 65.9795L1.22363 65.9619L30.8291 7.29297L30.8467 7.25781L30.8652 7.22266C31.8969 5.24322 33.3811 3.64718 35.1191 2.39648C37.4801 0.687825 40.2011 7.20429e-05 42.9199 0H44.0801Z" fill="#212121"/>
</svg>
